<?xml version="1.0" encoding="utf-8"?>
<!-- Generator: Adobe Illustrator 28.0.0, SVG Export Plug-In . SVG Version: 6.00 Build 0)  -->
<svg version="1.1" id="Layer_1" xmlns="http://www.w3.org/2000/svg" xmlns:xlink="http://www.w3.org/1999/xlink" x="0px" y="0px"
	 viewBox="0 0 811.9 480" style="enable-background:new 0 0 811.9 480;" xml:space="preserve">
<style type="text/css">
	.st0{fill:none;}
	.st1{fill:#FFFFFF;}
	.st2{fill:#231F20;}
</style>
<rect x="-120" y="-120" class="st0" width="1051.6" height="720"/>
<polygon class="st1" points="60,0 0,0 0,60 0,420 0,480 60,480 640.1,480 675.5,480 692.6,448.9 804.5,245.5 811.9,232 811.9,216.6 
	811.9,60 811.9,0 751.9,0 "/>
<path class="st2" d="M402.4,60H60v360h580.1l111.8-203.4V60H402.4z M337,184.2h-71.2v165.4h-74.6V184.2h-66.9v-61H337V184.2z
	 M734.8,212.1L629.6,402.2H402.4V77.5h332.4V212.1L734.8,212.1z"/>
<polygon class="st2" points="508.6,349.8 592.6,349.8 674.8,196.6 674.8,123.2 464.9,123.2 464.9,184.4 597.6,184.4 "/>
</svg>
